<svg xmlns="http://www.w3.org/2000/svg" xmlns:xlink="http://www.w3.org/1999/xlink" width="1920" zoomAndPan="magnify" viewBox="0 0 1440 809.999993" height="1080" preserveAspectRatio="xMidYMid meet" version="1.0"><defs><clipPath id="a620e036e2"><path d="M 3 37.898438 L 1439 37.898438 L 1439 637 L 3 637 Z M 3 37.898438 " clip-rule="nonzero"/></clipPath></defs><path fill="#f35e7a" d="M 1176.886719 107.203125 C 1175.167969 107.265625 1173.417969 107.710938 1171.792969 108.476562 L 1151.542969 118.21875 C 1145.015625 121.371094 1142.152344 129.523438 1145.304688 136.050781 L 1173.066406 193.617188 C 1176.21875 200.144531 1184.371094 203.007812 1190.898438 199.855469 L 1211.148438 190.113281 C 1217.675781 186.960938 1220.476562 178.808594 1217.324219 172.28125 L 1189.5625 114.714844 C 1187.203125 109.8125 1182.078125 106.980469 1176.886719 107.203125 Z M 1176.886719 107.203125 " fill-opacity="1" fill-rule="nonzero"/><path fill="#f35e7a" d="M 1286.355469 70.648438 C 1284.605469 70.648438 1282.851562 71.0625 1281.261719 71.859375 L 1235.027344 94.082031 C 1228.152344 97.394531 1226.433594 108.09375 1231.972656 113.378906 L 1245.027344 125.925781 C 1247.574219 128.40625 1251.300781 129.617188 1254.832031 129.171875 L 1291.257812 124.394531 C 1294.316406 124.015625 1297.179688 122.359375 1299.089844 119.9375 L 1315.394531 98.921875 C 1319.753906 93.320312 1317.460938 83.832031 1311 80.839844 C 1306.351562 78.671875 1301.894531 76.570312 1296.796875 74.214844 C 1294.125 72.941406 1294.125 72.941406 1291.511719 71.730469 C 1289.921875 70.96875 1288.105469 70.648438 1286.355469 70.648438 Z M 1286.355469 70.648438 " fill-opacity="1" fill-rule="nonzero"/><g clip-path="url(#a620e036e2)"><path fill="#f35e7a" d="M 1314.996094 37.917969 C 1307.714844 37.890625 1300.476562 38.199219 1293.296875 38.746094 C 1267.1875 40.753906 1241.332031 46.039062 1216.5625 54.410156 C 1206.882812 57.691406 1197.332031 61.480469 1188.03125 65.683594 C 1007.691406 145.601562 828.300781 227.78125 650.0625 312.316406 C 617.855469 327.601562 585.648438 342.945312 553.523438 358.421875 L 553.523438 358.359375 C 538.445312 365.617188 523.351562 372.941406 508.308594 380.265625 L 404.191406 330.464844 C 400.464844 328.683594 396.183594 328.492188 392.347656 330.019531 L 361.269531 342.4375 C 360.90625 342.566406 360.601562 342.757812 360.25 342.945312 C 350.96875 347.5625 349.171875 360.078125 356.8125 367.082031 L 415.972656 421.335938 L 318.921875 431.460938 C 309.273438 431.78125 299.53125 429.710938 290.777344 425.605469 L 75.535156 322.695312 C 71.015625 320.53125 65.730469 320.53125 61.207031 322.695312 L 12.9375 345.875 C 3.625 350.367188 0.726562 362.75 7.078125 370.902344 L 156.472656 563.089844 C 143.453125 570.382812 130.414062 577.738281 117.4375 585.125 C 108.601562 589.996094 105.035156 601.140625 109.414062 610.214844 C 110.578125 612.632812 112.3125 614.863281 114.570312 616.707031 L 114.761719 616.835938 C 114.796875 616.867188 114.796875 616.933594 114.828125 616.964844 L 128.453125 628.746094 C 134.394531 634.378906 142.417969 637.277344 150.550781 636.894531 C 184.046875 636.097656 217.160156 632.183594 249.894531 627.34375 C 332.898438 615.054688 415.175781 596.714844 495.191406 571.050781 C 559.109375 550.546875 621.53125 525.390625 681.773438 495.78125 L 877.527344 401.34375 C 880.773438 407.933594 884.4375 414.207031 888.414062 420.0625 C 893.636719 427.863281 903.15625 431.75 912.359375 429.679688 C 921.910156 427.640625 931.398438 425.253906 940.824219 422.609375 C 968.144531 414.96875 994.699219 404.84375 1020.171875 392.363281 C 1028.960938 388.066406 1037.621094 383.511719 1046.089844 378.671875 C 1056.597656 372.878906 1061.816406 360.585938 1058.886719 348.996094 C 1056.5625 339.03125 1053.03125 328.84375 1048.382812 319.003906 L 1311.828125 191.960938 C 1338.0625 179.289062 1362.769531 163.304688 1385.058594 144.519531 C 1404.164062 128.410156 1422.023438 109.71875 1434.984375 87.335938 C 1435.074219 87.199219 1435.113281 87.136719 1435.15625 87.066406 C 1435.320312 86.773438 1435.441406 86.480469 1435.558594 86.1875 C 1439.125 79.183594 1439.25 70.875 1435.8125 63.773438 C 1431.992188 55.875 1424.351562 50.527344 1415.625 49.636719 C 1402.378906 47.4375 1388.878906 46.898438 1375.441406 47.980469 C 1369.328125 45.78125 1363.089844 43.839844 1356.722656 42.375 C 1346.183594 39.988281 1335.578125 38.683594 1324.945312 38.171875 C 1321.621094 38.011719 1318.304688 37.933594 1314.996094 37.917969 Z M 1435.15625 87.066406 C 1435.140625 87.09375 1435.128906 87.117188 1435.113281 87.144531 C 1435.257812 86.894531 1435.234375 86.9375 1435.15625 87.066406 Z M 1313.042969 54.226562 C 1316.746094 54.214844 1320.441406 54.296875 1324.117188 54.476562 C 1333.925781 54.953125 1343.605469 56.128906 1353.09375 58.296875 C 1359.300781 59.695312 1365.445312 61.605469 1371.496094 63.835938 C 1372.640625 64.25 1373.851562 64.410156 1375.0625 64.28125 C 1388.339844 63.039062 1401.742188 63.707031 1414.925781 66.066406 C 1415.054688 66.097656 1415.246094 66.128906 1415.371094 66.128906 C 1418.046875 66.511719 1420.371094 68.199219 1421.550781 70.648438 C 1422.757812 73.195312 1422.632812 76.15625 1421.101562 78.546875 C 1420.910156 78.800781 1420.753906 79.085938 1420.59375 79.375 C 1408.941406 99.371094 1392.605469 116.691406 1374.488281 131.972656 C 1353.28125 149.867188 1329.722656 165.054688 1304.695312 177.125 L 1040.546875 304.546875 C 1037.300781 299.261719 1033.925781 294.167969 1030.234375 289.519531 C 1023.003906 280 1010.109375 276.402344 999.027344 281.050781 C 989.984375 284.679688 981.007812 288.5625 972.15625 292.765625 C 946.554688 304.929688 922.039062 319.449219 899.050781 336.070312 C 891.125 341.800781 883.449219 347.753906 875.871094 353.964844 C 868.515625 359.886719 865.554688 369.722656 868.421875 378.671875 C 869.183594 381.15625 870.457031 383.640625 871.351562 386.121094 L 674.640625 480.941406 L 674.515625 480.941406 C 614.972656 510.203125 553.265625 535.132812 490.097656 555.382812 C 411.035156 580.761719 329.699219 598.878906 247.472656 611.042969 C 214.996094 615.847656 182.457031 619.703125 149.914062 620.464844 L 149.726562 620.464844 C 146.015625 620.65625 142.386719 619.289062 139.726562 616.773438 C 139.617188 616.675781 139.519531 616.582031 139.410156 616.519531 L 125.207031 604.292969 C 125.097656 604.195312 125 604.101562 124.890625 604.035156 C 124.667969 603.84375 124.410156 603.496094 124.1875 603.019531 C 123.535156 601.648438 123.949219 600.183594 125.269531 599.449219 L 125.398438 599.449219 C 141.144531 590.472656 156.9375 581.558594 172.777344 572.707031 C 176.691406 570.539062 178.09375 565.574219 175.914062 561.65625 C 175.722656 561.308594 175.5 560.988281 175.261719 560.667969 L 20.007812 360.839844 C 19.894531 360.714844 19.878906 360.714844 19.878906 360.714844 L 20.070312 360.714844 L 68.339844 337.46875 L 68.46875 337.46875 L 283.773438 440.441406 C 294.917969 445.664062 307.222656 448.210938 319.5625 447.765625 L 320.132812 447.765625 L 430.746094 436.238281 C 431.160156 436.207031 431.558594 436.140625 431.957031 436.046875 L 470.164062 471.070312 C 472.535156 473.460938 476.167969 474 479.207031 472.535156 C 483.140625 470.625 484.796875 465.976562 482.898438 462.027344 C 482.421875 461.042969 481.738281 460.117188 480.925781 459.417969 L 368.785156 356.574219 L 397.824219 344.984375 L 574.21875 429.488281 C 574.472656 429.617188 574.777344 429.617188 575.046875 429.488281 L 855.238281 332.886719 C 855.683594 332.757812 856.097656 332.566406 856.511719 332.375 C 860.460938 330.464844 862.117188 325.753906 860.207031 321.804688 C 858.421875 318.113281 854.0625 316.359375 850.207031 317.855469 L 575.554688 412.484375 L 527.222656 389.371094 C 538.367188 383.957031 549.496094 378.511719 560.652344 373.132812 C 592.734375 357.65625 624.875 342.375 657.066406 327.089844 C 835.179688 242.617188 1014.472656 160.4375 1194.71875 80.582031 C 1203.570312 76.570312 1212.582031 73.007812 1221.785156 69.886719 C 1245.28125 61.925781 1269.796875 56.894531 1294.507812 54.984375 C 1300.675781 54.507812 1306.867188 54.242188 1313.042969 54.226562 Z M 1313.042969 54.226562 " fill-opacity="1" fill-rule="nonzero"/></g><path fill="#f35e7a" d="M 311.855469 548.570312 C 310.867188 548.21875 309.738281 548.285156 308.734375 548.761719 L 300.519531 552.710938 C 298.496094 553.664062 297.703125 556.085938 298.671875 558.121094 L 305.039062 571.304688 C 306.011719 573.34375 308.433594 574.171875 310.453125 573.214844 L 318.605469 569.265625 C 320.625 568.3125 321.484375 565.890625 320.515625 563.855469 L 314.148438 550.671875 C 313.667969 549.652344 312.839844 548.921875 311.855469 548.570312 Z M 311.855469 548.570312 " fill-opacity="1" fill-rule="nonzero"/><path fill="#f35e7a" d="M 350.828125 529.785156 C 349.839844 529.433594 348.773438 529.464844 347.769531 529.976562 L 339.554688 533.859375 C 337.535156 534.816406 336.675781 537.300781 337.644531 539.335938 L 344.011719 552.519531 C 344.984375 554.554688 347.402344 555.382812 349.425781 554.429688 L 357.640625 550.480469 C 359.664062 549.527344 360.523438 547.105469 359.550781 545.066406 L 353.183594 531.824219 C 352.707031 530.804688 351.8125 530.136719 350.828125 529.785156 Z M 350.828125 529.785156 " fill-opacity="1" fill-rule="nonzero"/><path fill="#f35e7a" d="M 389.863281 510.933594 C 388.875 510.585938 387.746094 510.648438 386.742188 511.125 L 378.589844 515.074219 C 376.570312 516.03125 375.710938 518.449219 376.679688 520.488281 L 383.050781 533.667969 C 384.019531 535.707031 386.441406 536.535156 388.460938 535.578125 L 396.675781 531.632812 C 398.699219 530.675781 399.496094 528.257812 398.523438 526.21875 L 392.15625 513.035156 C 391.679688 512.019531 390.851562 511.285156 389.863281 510.933594 Z M 389.863281 510.933594 " fill-opacity="1" fill-rule="nonzero"/><path fill="#f35e7a" d="M 428.898438 492.148438 C 427.910156 491.800781 426.78125 491.863281 425.777344 492.339844 L 417.5625 496.289062 C 415.542969 497.242188 414.746094 499.664062 415.71875 501.703125 L 422.085938 514.882812 C 423.058594 516.921875 425.476562 517.75 427.5 516.792969 L 435.648438 512.84375 C 437.671875 511.890625 438.53125 509.46875 437.558594 507.433594 L 431.191406 494.1875 C 430.714844 493.167969 429.886719 492.5 428.898438 492.148438 Z M 428.898438 492.148438 " fill-opacity="1" fill-rule="nonzero"/><path fill="#f7a571" d="M 1011.828125 295.824219 C 1013.898438 296.394531 1015.777344 297.605469 1017.179688 299.453125 C 1017.179688 299.515625 1017.242188 299.582031 1017.242188 299.644531 C 1023.164062 307.09375 1028.640625 315.691406 1033.035156 324.863281 C 1037.429688 334.03125 1040.804688 343.710938 1042.96875 352.945312 C 1042.96875 353.007812 1042.96875 353.007812 1042.96875 353.070312 C 1044.113281 357.53125 1042.109375 362.113281 1038.128906 364.28125 C 1038.128906 364.34375 1038.066406 364.34375 1038.066406 364.40625 C 1029.820312 369.121094 1021.414062 373.578125 1012.910156 377.714844 C 988.332031 389.753906 962.699219 399.558594 936.367188 406.945312 C 927.261719 409.492188 918.058594 411.785156 908.792969 413.757812 C 908.730469 413.757812 908.730469 413.757812 908.667969 413.757812 C 906.121094 414.332031 903.445312 413.1875 901.980469 411.019531 C 901.980469 410.957031 901.980469 410.957031 901.980469 410.894531 C 898.160156 405.289062 894.59375 399.304688 891.601562 393.0625 C 888.605469 386.824219 886.09375 380.265625 884.085938 373.769531 L 884.085938 373.703125 C 883.257812 371.222656 884.085938 368.386719 886.125 366.765625 C 886.1875 366.699219 886.1875 366.699219 886.25 366.636719 C 893.574219 360.617188 901.058594 354.855469 908.730469 349.316406 C 930.890625 333.332031 954.515625 319.320312 979.222656 307.605469 L 979.289062 307.605469 C 987.820312 303.5625 996.480469 299.773438 1005.269531 296.269531 C 1005.332031 296.269531 1005.332031 296.269531 1005.398438 296.269531 C 1007.5 295.378906 1009.757812 295.25 1011.828125 295.824219 Z M 1011.828125 295.824219 " fill-opacity="1" fill-rule="nonzero"/><path fill="#f35e7a" d="M 916.5625 256.976562 C 915.578125 256.628906 914.460938 256.597656 913.441406 257.105469 L 905.292969 261.054688 C 903.253906 262.007812 902.425781 264.429688 903.382812 266.464844 L 909.75 279.710938 C 910.703125 281.75 913.125 282.515625 915.164062 281.558594 L 923.3125 277.609375 C 925.351562 276.65625 926.179688 274.234375 925.222656 272.199219 L 918.855469 259.015625 C 918.378906 257.996094 917.550781 257.328125 916.5625 256.976562 Z M 916.5625 256.976562 " fill-opacity="1" fill-rule="nonzero"/><path fill="#f35e7a" d="M 955.597656 238.128906 C 954.613281 237.777344 953.496094 237.84375 952.480469 238.320312 L 944.265625 242.269531 C 942.226562 243.222656 941.460938 245.644531 942.417969 247.679688 L 948.785156 260.863281 C 949.742188 262.902344 952.160156 263.726562 954.199219 262.773438 L 962.347656 258.824219 C 964.386719 257.871094 965.214844 255.449219 964.257812 253.410156 L 957.890625 240.230469 C 957.414062 239.210938 956.585938 238.480469 955.597656 238.128906 Z M 955.597656 238.128906 " fill-opacity="1" fill-rule="nonzero"/><path fill="#f35e7a" d="M 994.570312 219.34375 C 993.585938 218.992188 992.46875 218.992188 991.453125 219.46875 L 983.300781 223.417969 C 981.261719 224.375 980.433594 226.792969 981.390625 228.832031 L 987.757812 242.078125 C 988.714844 244.113281 991.132812 244.878906 993.171875 243.925781 L 1001.386719 239.976562 C 1003.421875 239.019531 1004.25 236.601562 1003.296875 234.5625 L 996.925781 221.382812 C 996.449219 220.363281 995.558594 219.695312 994.570312 219.34375 Z M 994.570312 219.34375 " fill-opacity="1" fill-rule="nonzero"/><path fill="#f35e7a" d="M 1033.609375 200.492188 C 1032.621094 200.144531 1031.507812 200.207031 1030.488281 200.683594 L 1022.335938 204.632812 C 1020.296875 205.589844 1019.472656 208.007812 1020.425781 210.046875 L 1026.792969 223.226562 C 1027.75 225.265625 1030.167969 226.09375 1032.207031 225.136719 L 1040.359375 221.191406 C 1042.394531 220.234375 1043.222656 217.816406 1042.269531 215.777344 L 1035.898438 202.59375 C 1035.421875 201.578125 1034.59375 200.84375 1033.609375 200.492188 Z M 1033.609375 200.492188 " fill-opacity="1" fill-rule="nonzero"/><path fill="#f35e7a" d="M 1072.582031 181.707031 C 1071.59375 181.359375 1070.542969 181.324219 1069.523438 181.835938 L 1061.308594 185.785156 C 1059.269531 186.738281 1058.507812 189.222656 1059.460938 191.261719 L 1065.828125 204.441406 C 1066.785156 206.480469 1069.203125 207.308594 1071.242188 206.351562 L 1079.394531 202.402344 C 1081.429688 201.449219 1082.257812 199.027344 1081.304688 196.992188 L 1074.9375 183.746094 C 1074.457031 182.726562 1073.566406 182.058594 1072.582031 181.707031 Z M 1072.582031 181.707031 " fill-opacity="1" fill-rule="nonzero"/><path fill="#f35e7a" d="M 1111.617188 162.859375 C 1110.628906 162.507812 1109.515625 162.570312 1108.496094 163.050781 L 1100.34375 166.996094 C 1098.308594 167.953125 1097.480469 170.371094 1098.433594 172.410156 L 1104.800781 185.59375 C 1105.757812 187.628906 1108.175781 188.457031 1110.214844 187.503906 L 1118.429688 183.554688 C 1120.46875 182.597656 1121.296875 180.179688 1120.339844 178.140625 L 1113.972656 164.960938 C 1113.496094 163.941406 1112.601562 163.207031 1111.617188 162.859375 Z M 1111.617188 162.859375 " fill-opacity="1" fill-rule="nonzero"/><path fill="#f7a571" d="M 1176.125 124.585938 L 1201.214844 176.675781 L 1186.566406 183.746094 L 1161.414062 131.71875 Z M 1176.125 124.585938 " fill-opacity="1" fill-rule="nonzero"/><path fill="#f7a571" d="M 1286.484375 87.523438 C 1287.375 87.972656 1288.136719 88.257812 1289.859375 89.054688 C 1293.105469 90.582031 1296.003906 91.917969 1298.964844 93.320312 L 1287.308594 108.347656 L 1254.832031 112.613281 L 1248.019531 106.054688 Z M 1286.484375 87.523438 " fill-opacity="1" fill-rule="nonzero"/></svg>